<?xml version="1.0" encoding="UTF-8"?>
<svg width="30px" height="29px" viewBox="0 0 30 29" version="1.1" xmlns="http://www.w3.org/2000/svg" xmlns:xlink="http://www.w3.org/1999/xlink">
    <!-- Generator: Sketch 61.2 (89653) - https://sketch.com -->
    <title>star-regular (1)</title>
    <desc>Created with Sketch.</desc>
    <g id="Page-1" stroke="none" stroke-width="1" fill="none" fill-rule="evenodd">
        <g id="star-regular-(1)" fill="#000000" fill-rule="nonzero">
            <path d="M28.4384328,9.65485075 L20.261194,8.46268657 L16.6063433,1.05223881 C15.9514925,-0.268656716 14.0541045,-0.285447761 13.3936567,1.05223881 L9.73880597,8.46268657 L1.56156716,9.65485075 C0.0951492537,9.86753731 -0.492537313,11.6753731 0.570895522,12.7108209 L6.4869403,18.4757463 L5.08768657,26.619403 C4.8358209,28.0914179 6.38619403,29.1940299 7.68470149,28.505597 L15,24.6604478 L22.3152985,28.505597 C23.613806,29.1884328 25.1641791,28.0914179 24.9123134,26.619403 L23.5130597,18.4757463 L29.4291045,12.7108209 C30.4925373,11.6753731 29.9048507,9.86753731 28.4384328,9.65485075 L28.4384328,9.65485075 Z M20.630597,17.5354478 L21.9570896,25.2817164 L15,21.6268657 L8.04291045,25.2817164 L9.36940299,17.5354478 L3.73880597,12.0503731 L11.5186567,10.9197761 L15,3.86753731 L18.4813433,10.9197761 L26.261194,12.0503731 L20.630597,17.5354478 Z" id="Shape"></path>
        </g>
    </g>
</svg>