<?xml version="1.0" encoding="UTF-8"?>
<svg width="32px" height="30px" viewBox="0 0 32 30" version="1.1" xmlns="http://www.w3.org/2000/svg" xmlns:xlink="http://www.w3.org/1999/xlink">
    <!-- Generator: Sketch 61.2 (89653) - https://sketch.com -->
    <title>star-half</title>
    <desc>Created with Sketch.</desc>
    <g id="Page-1" stroke="none" stroke-width="1" fill="none" fill-rule="evenodd">
        <g id="star-half" fill="#000000" fill-rule="nonzero">
            <path d="M29.7204545,10.0233117 L21.1663636,8.77792208 L17.3437013,1.04084416 C17.000065,0.349480519 16.3297403,0 15.6594155,0 C14.9931819,0 14.3275324,0.344805195 13.9827273,1.04084416 L10.1588961,8.77733766 L1.60422078,10.0215584 C0.0701298702,10.2436364 -0.544675324,12.1307143 0.567467533,13.2118831 L6.75584416,19.2313636 L5.2912987,27.7334416 C5.08324676,28.9478571 6.05279221,29.9220779 7.13863636,29.9220779 C7.42675324,29.9220779 7.72305195,29.8537013 8.00766234,29.7029221 L15.6605845,25.6891559 L23.3129221,29.7040909 C23.5969481,29.8531169 23.8926624,29.9209091 24.1796104,29.9209091 C25.2666234,29.9209091 26.2379221,28.9501948 26.0298702,27.7351948 L24.5670779,19.2325324 L30.7566234,13.2142208 C31.8693507,12.1330519 31.2545455,10.2453896 29.7204545,10.0233117 Z M22.6057792,17.2233117 L21.5468181,18.2530519 L21.7969481,19.7070779 L22.9377273,26.3372727 L16.9690909,23.2053896 L15.6611688,22.5192857 L15.6629221,3.98220779 L18.6451948,10.0186364 L19.2985714,11.3411688 L20.7601948,11.5538961 L27.435974,12.5257792 L22.6057792,17.2233117 L22.6057792,17.2233117 Z" id="Shape"></path>
        </g>
    </g>
</svg>