<?xml version="1.0" encoding="UTF-8"?>
<svg width="384px" height="512px" viewBox="0 0 384 512" version="1.1" xmlns="http://www.w3.org/2000/svg" xmlns:xlink="http://www.w3.org/1999/xlink">
    <title>Shape</title>
    <desc>user default</desc>
    <g id="Page-1" stroke="none" stroke-width="1" fill="none" fill-rule="evenodd">
        <g id="portrait-solid" fill="#FFFFFF" fill-rule="nonzero">
            <path d="M336,0 L48,0 C21.5,0 0,21.5 0,48 L0,464 C0,490.5 21.5,512 48,512 L336,512 C362.5,512 384,490.5 384,464 L384,48 C384,21.5 362.5,0 336,0 Z M192,128 C227.3,128 256,156.7 256,192 C256,227.3 227.3,256 192,256 C156.7,256 128,227.3 128,192 C128,156.7 156.7,128 192,128 Z M304,364.8 C304,375.4 294,384 281.6,384 L102.4,384 C90,384 80,375.4 80,364.8 L80,345.6 C80,313.8 110.1,288 147.2,288 L152.2,288 C164.5,293.1 177.9,296 192,296 C206.1,296 219.6,293.1 231.8,288 L236.8,288 C273.9,288 304,313.8 304,345.6 L304,364.8 Z" id="Shape"></path>
        </g>
    </g>
</svg>