<?xml version="1.0" encoding="UTF-8"?>
<svg width="576px" height="448px" viewBox="0 0 576 448" version="1.1" xmlns="http://www.w3.org/2000/svg" xmlns:xlink="http://www.w3.org/1999/xlink">
    <title>Shape</title>
    <desc>broker default</desc>
    <g id="Page-1" stroke="none" stroke-width="1" fill="none" fill-rule="evenodd">
        <g id="home-solid" transform="translate(-1.000000, 0.000000)" fill="#000000" fill-rule="nonzero">
            <path d="M281.37,116.26 L97,268.11 L97,432 C97,440.836556 104.163444,448 113,448 L225.06,447.71 C233.865298,447.665973 240.98011,440.515408 240.98,431.71 L240.98,336 C240.98,327.163444 248.143444,320 256.98,320 L320.98,320 C329.816556,320 336.98,327.163444 336.98,336 L336.98,431.64 C336.966712,435.89212 338.646554,439.97464 341.648577,442.986045 C344.650601,445.997449 348.727859,447.690021 352.98,447.69 L465,448 C473.836556,448 481,440.836556 481,432 L481,268 L296.67,116.26 C292.204959,112.660948 285.835041,112.660948 281.37,116.26 Z M572.6,219.47 L489,150.56 L489,12.05 C489,5.422583 483.627417,0.05 477,0.05 L421,0.05 C414.372583,0.05 409,5.422583 409,12.05 L409,84.66 L319.47,11 C301.750725,-3.58115519 276.189275,-3.58115519 258.47,11 L5.34,219.47 C2.88592669,221.498366 1.33851976,224.418839 1.0384344,227.588491 C0.738349041,230.758142 1.71018621,233.917124 3.74,236.37 L29.24,267.37 C31.2643227,269.831477 34.1846522,271.386596 37.3569144,271.692379 C40.5291766,271.998162 43.6927811,271.029489 46.15,269 L281.37,75.26 C285.835041,71.6609483 292.204959,71.6609483 296.67,75.26 L531.9,269 C534.352876,271.029814 537.511858,272.001651 540.681509,271.701566 C543.851161,271.40148 546.771634,269.854073 548.8,267.4 L574.3,236.4 C576.327751,233.932837 577.288436,230.759165 576.969366,227.581608 C576.650297,224.404052 575.077795,221.484746 572.6,219.47 L572.6,219.47 Z" id="Shape"></path>
        </g>
    </g>
</svg>