<?xml version="1.0" encoding="UTF-8"?>
<svg width="448px" height="512px" viewBox="0 0 448 512" version="1.1" xmlns="http://www.w3.org/2000/svg" xmlns:xlink="http://www.w3.org/1999/xlink">
    <!-- Generator: Sketch 61.2 (89653) - https://sketch.com -->
    <title>building-regular</title>
    <desc>favicon and navbar</desc>
    <g id="Page-1" stroke="none" stroke-width="1" fill="none" fill-rule="evenodd">
        <g id="building-regular" fill="#FFFFFF" fill-rule="nonzero">
            <path d="M128,148 L128,108 C128,101.4 133.4,96 140,96 L180,96 C186.6,96 192,101.4 192,108 L192,148 C192,154.6 186.6,160 180,160 L140,160 C133.4,160 128,154.6 128,148 Z M268,160 L308,160 C314.6,160 320,154.6 320,148 L320,108 C320,101.4 314.6,96 308,96 L268,96 C261.4,96 256,101.4 256,108 L256,148 C256,154.6 261.4,160 268,160 Z M140,256 L180,256 C186.6,256 192,250.6 192,244 L192,204 C192,197.4 186.6,192 180,192 L140,192 C133.4,192 128,197.4 128,204 L128,244 C128,250.6 133.4,256 140,256 Z M268,256 L308,256 C314.6,256 320,250.6 320,244 L320,204 C320,197.4 314.6,192 308,192 L268,192 C261.4,192 256,197.4 256,204 L256,244 C256,250.6 261.4,256 268,256 Z M192,340 L192,300 C192,293.4 186.6,288 180,288 L140,288 C133.4,288 128,293.4 128,300 L128,340 C128,346.6 133.4,352 140,352 L180,352 C186.6,352 192,346.6 192,340 Z M268,352 L308,352 C314.6,352 320,346.6 320,340 L320,300 C320,293.4 314.6,288 308,288 L268,288 C261.4,288 256,293.4 256,300 L256,340 C256,346.6 261.4,352 268,352 Z M448,476 L448,512 L0,512 L0,476 C0,469.4 5.4,464 12,464 L31.5,464 L31.5,24 C31.5,10.7 42.2,0 55.5,0 L392.5,0 C405.8,0 416.5,10.7 416.5,24 L416.5,464 L436,464 C442.6,464 448,469.4 448,476 Z M79.5,463 L192,463 L192,396 C192,389.4 197.4,384 204,384 L244,384 C250.6,384 256,389.4 256,396 L256,463 L368.5,463 L368.5,49 L80,48 L79.5,463 Z" id="Shape"></path>
        </g>
    </g>
</svg>